<svg width="45" height="66" viewBox="0 0 45 66" fill="none" xmlns="http://www.w3.org/2000/svg">
<path d="M44.5 22.5C44.5 34.6649 34.9411 44.5 23.1818 44.5C11.4225 44.5 1.86365 34.6649 1.86365 22.5C1.86365 10.3351 11.4225 0.5 23.1818 0.5C34.9411 0.5 44.5 10.3351 44.5 22.5Z" stroke="#6FCF97"/>
<ellipse cx="1.70455" cy="22.8516" rx="1.70455" ry="1.75781" fill="white"/>
<path d="M15.4959 22.9461C15.222 22.9461 15 22.6888 15 22.3713C15 22.0539 15.222 21.7965 15.4959 21.7965L30.8678 21.7965C31.1416 21.7965 31.3636 22.0539 31.3636 22.3713C31.3636 22.6888 31.1416 22.9461 30.8678 22.9461L15.4959 22.9461Z" fill="white"/>
<path d="M27.3578 27.2531C27.1641 27.4776 26.8502 27.4776 26.6565 27.2531C26.4629 27.0287 26.4629 26.6647 26.6565 26.4402L30.5135 21.9693C30.7071 21.7449 31.0211 21.7449 31.2147 21.9693C31.4084 22.1938 31.4084 22.5578 31.2147 22.7822L27.3578 27.2531Z" fill="white"/>
<path d="M4.58 58.12C4.05 58.12 3.6 58.0167 3.23 57.81C2.86 57.6033 2.56167 57.3267 2.335 56.98C2.10833 56.63 1.94167 56.24 1.835 55.81C1.73167 55.38 1.68 54.9433 1.68 54.5C1.68 54.06 1.73333 53.6267 1.84 53.2C1.95 52.77 2.12 52.38 2.35 52.03C2.58 51.68 2.87833 51.4017 3.245 51.195C3.615 50.985 4.06 50.88 4.58 50.88C5.01 50.88 5.37333 50.9417 5.67 51.065C5.97 51.1883 6.21333 51.3467 6.4 51.54C6.59 51.73 6.73667 51.93 6.84 52.14L6.06 52.54C5.95 52.3767 5.83 52.2317 5.7 52.105C5.57 51.975 5.415 51.8733 5.235 51.8C5.055 51.7267 4.83667 51.69 4.58 51.69C4.20667 51.69 3.89167 51.775 3.635 51.945C3.37833 52.115 3.17167 52.3383 3.015 52.615C2.86167 52.8917 2.75 53.195 2.68 53.525C2.61333 53.855 2.58 54.18 2.58 54.5C2.58 54.8467 2.61833 55.1867 2.695 55.52C2.77167 55.8533 2.89167 56.155 3.055 56.425C3.21833 56.6917 3.425 56.905 3.675 57.065C3.92833 57.2217 4.23 57.3 4.58 57.3C4.96667 57.3 5.27667 57.2183 5.51 57.055C5.74333 56.8883 5.94 56.6733 6.1 56.41L6.9 56.71C6.78 56.97 6.61667 57.2067 6.41 57.42C6.20333 57.6333 5.94833 57.8033 5.645 57.93C5.345 58.0567 4.99 58.12 4.58 58.12ZM9.78461 58.12C9.23128 58.12 8.79628 57.9667 8.47961 57.66C8.16294 57.3533 8.00461 56.9333 8.00461 56.4C8.00461 56.0567 8.08294 55.7583 8.23961 55.505C8.39628 55.2517 8.61794 55.0567 8.90461 54.92C9.19128 54.78 9.52794 54.71 9.91461 54.71C10.1646 54.71 10.3979 54.7383 10.6146 54.795C10.8346 54.8483 11.0413 54.93 11.2346 55.04V54.68C11.2346 54.2833 11.1446 53.9933 10.9646 53.81C10.7846 53.6233 10.5046 53.53 10.1246 53.53C9.88128 53.53 9.62794 53.575 9.36461 53.665C9.10461 53.755 8.86128 53.88 8.63461 54.04L8.38461 53.31C8.64128 53.14 8.93294 53.0083 9.25961 52.915C9.58961 52.8183 9.91461 52.77 10.2346 52.77C10.8413 52.77 11.2963 52.925 11.5996 53.235C11.9029 53.5417 12.0546 54 12.0546 54.61V58H11.2346V57.53C11.0346 57.72 10.8096 57.8667 10.5596 57.97C10.3096 58.07 10.0513 58.12 9.78461 58.12ZM9.91461 57.36C10.1513 57.36 10.3846 57.3017 10.6146 57.185C10.8479 57.0683 11.0546 56.9033 11.2346 56.69V55.81C11.0646 55.7033 10.8713 55.62 10.6546 55.56C10.4379 55.5 10.2313 55.47 10.0346 55.47C9.66128 55.47 9.36628 55.555 9.14961 55.725C8.93294 55.8917 8.82461 56.12 8.82461 56.41C8.82461 56.7033 8.92128 56.935 9.11461 57.105C9.30794 57.275 9.57461 57.36 9.91461 57.36ZM13.6183 58V51.19L14.4883 50.78V58H13.6183ZM18.0055 58.12C17.5655 58.12 17.1871 58.0133 16.8705 57.8C16.5538 57.5833 16.3105 57.2767 16.1405 56.88C15.9705 56.48 15.8855 56.0033 15.8855 55.45C15.8855 54.8933 15.9721 54.415 16.1455 54.015C16.3188 53.615 16.5655 53.3083 16.8855 53.095C17.2088 52.8783 17.5955 52.77 18.0455 52.77C18.4855 52.77 18.8588 52.8717 19.1655 53.075C19.4721 53.2783 19.6955 53.5733 19.8355 53.96L19.0155 54.26C18.9321 54.04 18.8071 53.8717 18.6405 53.755C18.4771 53.6383 18.2821 53.58 18.0555 53.58C17.6421 53.58 17.3255 53.74 17.1055 54.06C16.8855 54.38 16.7755 54.8433 16.7755 55.45C16.7755 56.0433 16.8838 56.5 17.1005 56.82C17.3171 57.14 17.6255 57.3 18.0255 57.3C18.2821 57.3 18.5005 57.2333 18.6805 57.1C18.8638 56.9667 18.9921 56.78 19.0655 56.54L19.8755 56.81C19.7521 57.23 19.5271 57.5533 19.2005 57.78C18.8738 58.0067 18.4755 58.12 18.0055 58.12ZM22.8978 58.12C22.2678 58.12 21.7995 57.9333 21.4928 57.56C21.1895 57.1867 21.0378 56.6133 21.0378 55.84V52.89H21.9078V55.97C21.9078 56.4033 22.0028 56.735 22.1928 56.965C22.3828 57.195 22.6545 57.31 23.0078 57.31C23.3978 57.31 23.6911 57.1983 23.8878 56.975C24.0878 56.7517 24.1878 56.4233 24.1878 55.99V52.89H25.0578V58H24.1878V57.51C24.0245 57.72 23.8395 57.875 23.6328 57.975C23.4295 58.0717 23.1845 58.12 22.8978 58.12ZM26.7726 58V51.19L27.6426 50.78V58H26.7726ZM30.8198 58.12C30.2664 58.12 29.8314 57.9667 29.5148 57.66C29.1981 57.3533 29.0398 56.9333 29.0398 56.4C29.0398 56.0567 29.1181 55.7583 29.2748 55.505C29.4314 55.2517 29.6531 55.0567 29.9398 54.92C30.2264 54.78 30.5631 54.71 30.9498 54.71C31.1998 54.71 31.4331 54.7383 31.6498 54.795C31.8698 54.8483 32.0764 54.93 32.2698 55.04V54.68C32.2698 54.2833 32.1798 53.9933 31.9998 53.81C31.8198 53.6233 31.5398 53.53 31.1598 53.53C30.9164 53.53 30.6631 53.575 30.3998 53.665C30.1398 53.755 29.8964 53.88 29.6698 54.04L29.4198 53.31C29.6764 53.14 29.9681 53.0083 30.2948 52.915C30.6248 52.8183 30.9498 52.77 31.2698 52.77C31.8764 52.77 32.3314 52.925 32.6348 53.235C32.9381 53.5417 33.0898 54 33.0898 54.61V58H32.2698V57.53C32.0698 57.72 31.8448 57.8667 31.5948 57.97C31.3448 58.07 31.0864 58.12 30.8198 58.12ZM30.9498 57.36C31.1864 57.36 31.4198 57.3017 31.6498 57.185C31.8831 57.0683 32.0898 56.9033 32.2698 56.69V55.81C32.0998 55.7033 31.9064 55.62 31.6898 55.56C31.4731 55.5 31.2664 55.47 31.0698 55.47C30.6964 55.47 30.4014 55.555 30.1848 55.725C29.9681 55.8917 29.8598 56.12 29.8598 56.41C29.8598 56.7033 29.9564 56.935 30.1498 57.105C30.3431 57.275 30.6098 57.36 30.9498 57.36ZM35.877 58.12C35.527 58.12 35.2586 58.015 35.072 57.805C34.8886 57.595 34.797 57.2933 34.797 56.9V53.65H33.967V52.89H34.797V51.2L35.667 50.78V52.89H36.927V53.65H35.667V56.61C35.667 56.8533 35.7086 57.0317 35.792 57.145C35.8786 57.255 36.0136 57.31 36.197 57.31C36.4303 57.31 36.6836 57.22 36.957 57.04L36.857 57.89C36.707 57.97 36.5503 58.0283 36.387 58.065C36.227 58.1017 36.057 58.12 35.877 58.12ZM40.1086 58.12C39.6419 58.12 39.2386 58.005 38.8986 57.775C38.5586 57.545 38.2969 57.2283 38.1136 56.825C37.9303 56.4217 37.8386 55.96 37.8386 55.44C37.8386 54.8767 37.9336 54.3967 38.1236 54C38.3136 53.6 38.5786 53.295 38.9186 53.085C39.2586 52.875 39.6553 52.77 40.1086 52.77C40.4919 52.77 40.8436 52.8567 41.1636 53.03C41.4836 53.2 41.7386 53.465 41.9286 53.825C42.1219 54.1817 42.2186 54.64 42.2186 55.2C42.2186 55.28 42.2153 55.3733 42.2086 55.48C42.2053 55.5833 42.1986 55.69 42.1886 55.8H38.7286C38.7619 56.11 38.8386 56.3817 38.9586 56.615C39.0786 56.8483 39.2369 57.0317 39.4336 57.165C39.6303 57.295 39.8619 57.36 40.1286 57.36C40.3453 57.36 40.5453 57.3217 40.7286 57.245C40.9153 57.1683 41.0886 57.05 41.2486 56.89L41.7586 57.46C41.5686 57.65 41.3319 57.8083 41.0486 57.935C40.7686 58.0583 40.4553 58.12 40.1086 58.12ZM38.7186 55.04H41.3386C41.3386 54.75 41.2903 54.4917 41.1936 54.265C41.1003 54.035 40.9619 53.855 40.7786 53.725C40.5953 53.595 40.3719 53.53 40.1086 53.53C39.7386 53.53 39.4203 53.65 39.1536 53.89C38.8903 54.13 38.7453 54.5133 38.7186 55.04Z" fill="#A9A9A9"/>
</svg>
