<svg width="258" height="252" viewBox="0 0 258 252" fill="none" xmlns="http://www.w3.org/2000/svg">
<path d="M179.506 12.2981C166.414 19.7861 157.18 32.3801 145.99 42.4901C132.072 55.0155 115.132 63.7005 96.8381 67.6901C81.8381 70.9361 66.1661 70.9841 51.7121 76.09C23.5121 85.9841 4.19807 115.348 3.71207 145.204C3.22607 175.06 20.2121 204.004 45.1781 220.372C53.6808 225.949 62.9892 230.189 72.7781 232.942C91.1381 238.108 110.608 237.88 129.58 235.906C162.352 232.492 196.708 213.88 217.366 187.642C226.574 175.915 234.357 163.135 240.55 149.572C250.781 127.27 256.592 103.196 257.662 78.6821C258.532 57.6821 257.662 34.4021 241 19.0961C224.338 3.79006 199.036 1.12006 179.506 12.2981Z" fill="#F9F9F9" fill-opacity="0.02"/>
<path d="M200.263 251.37C223.922 251.37 243.101 246.204 243.101 239.832C243.101 233.459 223.922 228.294 200.263 228.294C176.603 228.294 157.424 233.459 157.424 239.832C157.424 246.204 176.603 251.37 200.263 251.37Z" fill="#ECECEC"/>
<path d="M158.176 14.98H31.6781C28.7123 14.98 26.3081 17.3842 26.3081 20.35V91.264C26.3081 94.2297 28.7123 96.634 31.6781 96.634H158.176C161.142 96.634 163.546 94.2297 163.546 91.264V20.35C163.546 17.3842 161.142 14.98 158.176 14.98Z" fill="white"/>
<path d="M163.546 20.35V22.474H26.3081V20.35C26.3081 18.923 26.8729 17.554 27.8791 16.5422C28.8853 15.5304 30.2511 14.9579 31.6781 14.95H158.2C158.906 14.9524 159.605 15.094 160.256 15.3669C160.907 15.6398 161.498 16.0385 161.994 16.5402C162.491 17.0418 162.884 17.6366 163.15 18.2904C163.416 18.9442 163.551 19.6441 163.546 20.35Z" fill="#92E3A9"/>
<path d="M158.176 14.98H31.6781C28.7123 14.98 26.3081 17.3842 26.3081 20.35V91.264C26.3081 94.2297 28.7123 96.634 31.6781 96.634H158.176C161.142 96.634 163.546 94.2297 163.546 91.264V20.35C163.546 17.3842 161.142 14.98 158.176 14.98Z" stroke="#263238" stroke-width="1.52" stroke-linecap="round" stroke-linejoin="round"/>
<path d="M163.546 20.35V22.474H26.3081V20.35C26.3081 18.923 26.8729 17.554 27.8791 16.5422C28.8853 15.5304 30.2511 14.9579 31.6781 14.95H158.2C158.906 14.9524 159.605 15.094 160.256 15.3669C160.907 15.6398 161.498 16.0385 161.994 16.5402C162.491 17.0418 162.884 17.6366 163.15 18.2904C163.416 18.9442 163.551 19.6441 163.546 20.35V20.35Z" stroke="#263238" stroke-width="1.52" stroke-linecap="round" stroke-linejoin="round"/>
<path d="M41.7219 18.724C41.7231 18.996 41.6435 19.2623 41.4932 19.489C41.343 19.7157 41.1288 19.8928 40.8778 19.9977C40.6269 20.1026 40.3504 20.1307 40.0835 20.0783C39.8166 20.026 39.5712 19.8956 39.3784 19.7037C39.1857 19.5118 39.0542 19.267 39.0007 19.0003C38.9472 18.7336 38.9741 18.457 39.0779 18.2056C39.1817 17.9542 39.3578 17.7392 39.5839 17.588C39.81 17.4368 40.0759 17.356 40.3479 17.356C40.7112 17.356 41.0598 17.4999 41.3173 17.7563C41.5748 18.0127 41.7203 18.3606 41.7219 18.724Z" fill="#263238"/>
<path d="M48.8921 18.724C48.8933 18.996 48.8138 19.2623 48.6635 19.489C48.5133 19.7157 48.2991 19.8928 48.0481 19.9977C47.7972 20.1026 47.5207 20.1307 47.2538 20.0783C46.9869 20.026 46.7415 19.8956 46.5487 19.7037C46.356 19.5118 46.2245 19.267 46.171 19.0003C46.1175 18.7336 46.1444 18.457 46.2482 18.2056C46.352 17.9542 46.5281 17.7392 46.7542 17.588C46.9803 17.4368 47.2461 17.356 47.5181 17.356C47.8815 17.356 48.2301 17.4999 48.4876 17.7563C48.7451 18.0127 48.8906 18.3606 48.8921 18.724Z" fill="#263238"/>
<path d="M54.6877 20.098C55.4466 20.098 56.0617 19.4828 56.0617 18.724C56.0617 17.9651 55.4466 17.35 54.6877 17.35C53.9289 17.35 53.3137 17.9651 53.3137 18.724C53.3137 19.4828 53.9289 20.098 54.6877 20.098Z" fill="#263238"/>
<path d="M75.4601 28.42H36.6581C35.4353 28.42 34.4441 29.4112 34.4441 30.634V49.3C34.4441 50.5228 35.4353 51.514 36.6581 51.514H75.4601C76.6829 51.514 77.6741 50.5228 77.6741 49.3V30.634C77.6741 29.4112 76.6829 28.42 75.4601 28.42Z" stroke="#263238" stroke-width="1.52" stroke-linecap="round" stroke-linejoin="round"/>
<path d="M36.988 48.61H74.47" stroke="#263238" stroke-width="1.52" stroke-linecap="round" stroke-linejoin="round"/>
<path d="M44.1221 44.2H39.7721V48.55H44.1221V44.2Z" fill="#92E3A9" stroke="#263238" stroke-width="1.52" stroke-miterlimit="10"/>
<path d="M50.4881 38.482H46.1381V48.61H50.4881V38.482Z" fill="#92E3A9" stroke="#263238" stroke-width="1.52" stroke-miterlimit="10"/>
<path d="M57.6581 40.222H53.3081V48.712H57.6581V40.222Z" fill="#92E3A9" stroke="#263238" stroke-width="1.52" stroke-miterlimit="10"/>
<path d="M65.1941 31.768H60.8441V48.418H65.1941V31.768Z" fill="#92E3A9" stroke="#263238" stroke-width="1.52" stroke-miterlimit="10"/>
<path d="M72.7239 31.9H68.3739V48.55H72.7239V31.9Z" fill="#92E3A9" stroke="#263238" stroke-width="1.52" stroke-miterlimit="10"/>
<path d="M131.272 52.708C137.989 52.708 143.434 47.2629 143.434 40.546C143.434 33.8291 137.989 28.384 131.272 28.384C124.555 28.384 119.11 33.8291 119.11 40.546C119.11 47.2629 124.555 52.708 131.272 52.708Z" fill="#92E3A9" stroke="#263238" stroke-width="1.52" stroke-miterlimit="10"/>
<path d="M132.268 48.13V49.378H130.228V48.13C129.39 47.9273 128.649 47.4391 128.133 46.7492C127.616 46.0594 127.355 45.211 127.396 44.35V43.786L129.706 43.534V44.134C129.706 45.292 130.306 45.994 131.248 45.994C131.453 46.011 131.658 45.9835 131.851 45.9135C132.044 45.8434 132.219 45.7325 132.365 45.5883C132.511 45.4441 132.624 45.27 132.697 45.078C132.769 44.886 132.799 44.6806 132.784 44.476C132.784 43.366 131.746 42.412 130.522 41.398C129.07 40.198 127.624 38.77 127.624 36.754C127.624 34.738 128.572 33.376 130.228 32.968V31.714H132.268V32.956C133.942 33.346 134.914 34.756 134.914 36.766V37.174L132.604 37.42V37C132.604 35.8 132.13 35.14 131.29 35.14C130.45 35.14 129.976 35.662 129.976 36.658C129.976 37.768 131.044 38.698 132.244 39.736C133.672 40.936 135.142 42.364 135.142 44.38C135.178 45.2425 134.909 46.0901 134.384 46.7753C133.859 47.4604 133.11 47.9398 132.268 48.13Z" fill="#263238"/>
<path d="M33.4359 63.31H36.9879" stroke="#263238" stroke-width="1.52" stroke-linecap="round" stroke-linejoin="round"/>
<path d="M33.4359 70.174H36.9879" stroke="#263238" stroke-width="1.52" stroke-linecap="round" stroke-linejoin="round"/>
<path d="M33.4359 77.0439H36.9879" stroke="#263238" stroke-width="1.52" stroke-linecap="round" stroke-linejoin="round"/>
<path d="M33.4359 83.908H36.9879" stroke="#263238" stroke-width="1.52" stroke-linecap="round" stroke-linejoin="round"/>
<path d="M44.8182 89.092V86.332" stroke="#263238" stroke-width="1.52" stroke-linecap="round" stroke-linejoin="round"/>
<path d="M50.4462 89.092V86.332" stroke="#263238" stroke-width="1.52" stroke-linecap="round" stroke-linejoin="round"/>
<path d="M56.0741 89.092V86.332" stroke="#263238" stroke-width="1.52" stroke-linecap="round" stroke-linejoin="round"/>
<path d="M61.7083 89.092V86.332" stroke="#263238" stroke-width="1.52" stroke-linecap="round" stroke-linejoin="round"/>
<path d="M67.3361 89.092V86.332" stroke="#263238" stroke-width="1.52" stroke-linecap="round" stroke-linejoin="round"/>
<path d="M72.964 89.092V86.332" stroke="#263238" stroke-width="1.52" stroke-linecap="round" stroke-linejoin="round"/>
<path d="M78.5923 89.092V86.332" stroke="#263238" stroke-width="1.52" stroke-linecap="round" stroke-linejoin="round"/>
<path d="M84.2261 89.092V86.332" stroke="#263238" stroke-width="1.52" stroke-linecap="round" stroke-linejoin="round"/>
<path d="M89.8542 89.092V86.332" stroke="#263238" stroke-width="1.52" stroke-linecap="round" stroke-linejoin="round"/>
<path d="M95.4822 89.092V86.332" stroke="#263238" stroke-width="1.52" stroke-linecap="round" stroke-linejoin="round"/>
<path d="M101.11 89.092V86.332" stroke="#263238" stroke-width="1.52" stroke-linecap="round" stroke-linejoin="round"/>
<path d="M106.744 89.092V86.332" stroke="#263238" stroke-width="1.52" stroke-linecap="round" stroke-linejoin="round"/>
<path d="M112.372 89.092V86.332" stroke="#263238" stroke-width="1.52" stroke-linecap="round" stroke-linejoin="round"/>
<path d="M118 89.092V86.332" stroke="#263238" stroke-width="1.52" stroke-linecap="round" stroke-linejoin="round"/>
<path d="M123.628 89.092V86.332" stroke="#263238" stroke-width="1.52" stroke-linecap="round" stroke-linejoin="round"/>
<path d="M129.046 89.092V86.332" stroke="#263238" stroke-width="1.52" stroke-linecap="round" stroke-linejoin="round"/>
<path d="M134.464 89.092V86.332" stroke="#263238" stroke-width="1.52" stroke-linecap="round" stroke-linejoin="round"/>
<path d="M139.876 89.092V86.332" stroke="#263238" stroke-width="1.52" stroke-linecap="round" stroke-linejoin="round"/>
<path d="M154.204 59.11V85.786C154.204 87.616 152.344 89.092 150.052 89.092H37.6C36.9153 89.1162 36.2342 88.9821 35.6098 88.7001C34.9854 88.4181 34.4345 87.9957 34 87.466C33.6246 86.985 33.4142 86.3959 33.4 85.786V59.11C33.4 57.31 35.26 55.804 37.552 55.804H150.052C152.344 55.804 154.204 57.28 154.204 59.11Z" stroke="#92E3A9" stroke-width="1.52" stroke-linecap="round" stroke-linejoin="round"/>
<path d="M119.98 7.44396L84.0819 55.804L70.3539 74.296L55.3539 64.744L36.9999 89.092H36.7359C36.1604 89.0924 35.5948 88.9427 35.0949 88.6575C34.5951 88.3723 34.1783 87.9616 33.8859 87.466L54.5079 60.1L69.5079 69.634L79.7739 55.834L117.208 5.43396L119.98 7.44396Z" fill="#219653"/>
<path d="M110.872 8.05598L124.066 0.0579834L120.418 13.894L118.09 7.49198L110.872 8.05598Z" fill="#219653"/>
<path d="M235.738 160.312H24.7239L1.0719 181.342" stroke="#27AE60" stroke-width="2.10526" stroke-linecap="round" stroke-linejoin="round"/>
<path d="M24.8561 145.588V104.698" stroke="#27AE60" stroke-width="2.10526" stroke-linecap="round" stroke-linejoin="round"/>
<path d="M24.8561 157.936V150.028" stroke="#27AE60" stroke-width="2.10526" stroke-linecap="round" stroke-linejoin="round"/>
<path d="M223.035 60.832C223.035 60.832 223.035 58.36 219.573 54.904C216.111 51.448 213.891 49.468 213.891 49.468C213.891 49.468 212.157 55.15 215.373 58.612C217.736 61.0507 220.299 63.2866 223.035 65.296V60.832Z" fill="#92E3A9"/>
<path d="M218.013 76.27C218.013 76.27 218.013 73.798 214.551 70.336C211.089 66.874 208.869 64.9 208.869 64.9C208.869 64.9 207.141 70.582 210.351 74.044C212.716 76.4815 215.279 78.7191 218.013 80.734V76.27Z" fill="#92E3A9"/>
<path d="M222.813 65.044C222.813 65.044 223.077 62.584 226.881 59.506C230.685 56.428 233.109 54.706 233.109 54.706C233.109 54.706 234.225 60.556 230.667 63.64C228.06 65.8104 225.277 67.7591 222.345 69.466L222.813 65.044Z" fill="#92E3A9"/>
<path d="M216.747 83.272C216.747 83.272 217.269 80.8721 221.373 78.1961C225.477 75.5201 228.063 74.0681 228.063 74.0681C228.063 74.0681 228.561 79.9901 224.715 82.7021C221.896 84.5863 218.924 86.2301 215.829 87.6161L216.747 83.272Z" fill="#92E3A9"/>
<path d="M217.893 103.138C217.893 103.138 217.893 100.666 221.349 97.2101C224.805 93.7541 227.031 91.774 227.031 91.774C227.031 91.774 228.765 97.462 225.549 100.918C223.191 103.36 220.629 105.598 217.893 107.608V103.138Z" fill="#92E3A9"/>
<path d="M217.833 107.992C217.833 107.992 218.181 105.544 215.247 101.632C212.313 97.7201 210.399 95.4401 210.399 95.4401C210.399 95.4401 207.891 100.84 210.573 104.704C212.567 107.449 214.787 110.021 217.209 112.396L217.833 107.992Z" fill="#92E3A9"/>
<path d="M214.42 122.362C214.42 122.362 214.42 119.896 217.882 116.434C221.344 112.972 223.564 111.034 223.564 111.034C223.564 111.034 225.298 116.716 222.082 120.172C219.72 122.613 217.157 124.851 214.42 126.862V122.362Z" fill="#92E3A9"/>
<path d="M216.729 135.4C216.729 135.4 216.129 133 218.583 128.8C221.037 124.6 222.705 122.11 222.705 122.11C222.705 122.11 225.813 127.174 223.587 131.332C221.917 134.287 220.003 137.097 217.863 139.732L216.729 135.4Z" fill="#92E3A9"/>
<path d="M223.347 60.22C223.173 62.7915 222.856 65.3514 222.399 67.888C221.031 74.956 217.599 79.516 216.243 85.888C214.887 92.26 218.805 100.498 217.755 108.688C216.705 116.878 213.507 121.444 214.407 126.916C215.307 132.388 220.107 147.196 220.107 147.196" stroke="#263238" stroke-width="1.78978" stroke-linecap="round" stroke-linejoin="round"/>
<path d="M222.784 66.688L226.51 63.82" stroke="#263238" stroke-width="1.78978" stroke-linecap="round" stroke-linejoin="round"/>
<path d="M222.951 63.394L221.397 60.616" stroke="#263238" stroke-width="1.78978" stroke-linecap="round" stroke-linejoin="round"/>
<path d="M216.453 85.6001C216.453 85.6001 219.573 83.2541 222.783 80.9141" stroke="#263238" stroke-width="1.78978" stroke-linecap="round" stroke-linejoin="round"/>
<path d="M218.013 80.704C218.013 80.704 215.409 75.604 212.463 72.22" stroke="#263238" stroke-width="1.78978" stroke-linecap="round" stroke-linejoin="round"/>
<path d="M218.014 106.654C219.801 103.371 222.055 100.364 224.704 97.726" stroke="#263238" stroke-width="1.78978" stroke-linecap="round" stroke-linejoin="round"/>
<path d="M217.407 110.122C216.45 107.89 215.311 105.74 213.999 103.696C212.199 101.008 211.911 100.66 211.911 100.66" stroke="#263238" stroke-width="1.78978" stroke-linecap="round" stroke-linejoin="round"/>
<path d="M214.42 126.91C215.212 124.945 216.153 123.044 217.234 121.222C218.313 119.526 219.529 117.92 220.87 116.422" stroke="#263238" stroke-width="1.78978" stroke-linecap="round" stroke-linejoin="round"/>
<path d="M217.857 139.702C217.676 137.827 217.999 135.938 218.793 134.23C220.095 131.716 221.565 128.416 222.177 127.12" stroke="#263238" stroke-width="1.78978" stroke-linecap="round" stroke-linejoin="round"/>
<path d="M200.379 93.844C200.379 93.844 200.109 92.302 201.903 89.752C203.697 87.202 204.903 85.72 204.903 85.72C204.903 85.72 206.601 89.092 204.963 91.612C203.747 93.3955 202.382 95.0734 200.883 96.628L200.379 93.844Z" fill="#92E3A9"/>
<path d="M205.204 103C205.204 103 204.934 101.446 206.728 98.902C208.522 96.358 209.728 94.876 209.728 94.876C209.728 94.876 211.426 98.254 209.788 100.768C208.572 102.553 207.207 104.231 205.708 105.784L205.204 103Z" fill="#92E3A9"/>
<path d="M200.973 96.46C200.973 96.46 200.553 94.948 197.823 93.46C195.093 91.972 193.395 91.12 193.395 91.12C193.395 91.12 193.329 94.882 195.903 96.46C197.773 97.5384 199.73 98.4577 201.753 99.208L200.973 96.46Z" fill="#92E3A9"/>
<path d="M206.757 107.23C206.757 107.23 206.157 105.772 203.301 104.554C200.445 103.336 198.651 102.694 198.651 102.694C198.651 102.694 198.981 106.456 201.699 107.74C203.673 108.615 205.716 109.324 207.807 109.858L206.757 107.23Z" fill="#92E3A9"/>
<path d="M208.197 119.8C208.197 119.8 207.927 118.252 205.383 116.458C202.839 114.664 201.225 113.662 201.225 113.662C201.225 113.662 200.757 117.424 203.151 119.236C204.896 120.503 206.745 121.621 208.677 122.578L208.197 119.8Z" fill="#92E3A9"/>
<path d="M208.755 122.854C208.755 122.854 208.269 121.36 209.685 118.588C211.101 115.816 212.085 114.178 212.085 114.178C212.085 114.178 214.245 117.274 212.985 120.004C212.025 121.941 210.905 123.796 209.637 125.548L208.755 122.854Z" fill="#92E3A9"/>
<path d="M213.099 135.352C213.099 135.352 213.279 133.792 215.715 131.854C218.151 129.916 219.705 128.854 219.705 128.854C219.705 128.854 220.389 132.574 218.103 134.53C216.434 135.895 214.654 137.12 212.781 138.19L213.099 135.352Z" fill="#92E3A9"/>
<path d="M212.458 131.5C212.458 131.5 212.188 129.946 209.644 128.152C207.1 126.358 205.492 125.362 205.492 125.362C205.492 125.362 205.024 129.124 207.412 130.936C209.159 132.203 211.009 133.321 212.944 134.278L212.458 131.5Z" fill="#92E3A9"/>
<path d="M212.421 139.924C212.421 139.924 212.559 138.352 210.549 135.976C208.539 133.6 207.237 132.214 207.237 132.214C207.237 132.214 205.833 135.724 207.687 138.094C209.057 139.765 210.562 141.321 212.187 142.744L212.421 139.924Z" fill="#92E3A9"/>
<path d="M200.109 93.484C200.5 95.0793 200.979 96.6517 201.543 98.194C203.163 102.472 205.804 104.962 207.352 108.814C208.9 112.666 207.351 118.252 208.881 123.274C210.411 128.296 212.932 130.798 212.95 134.344C212.968 137.89 211.599 147.688 211.599 147.688" stroke="#263238" stroke-width="1.78978" stroke-linecap="round" stroke-linejoin="round"/>
<path d="M201.171 97.486L198.525 96.1" stroke="#263238" stroke-width="1.78978" stroke-linecap="round" stroke-linejoin="round"/>
<path d="M200.703 95.44L201.381 93.532" stroke="#263238" stroke-width="1.78978" stroke-linecap="round" stroke-linejoin="round"/>
<path d="M207.196 108.652C207.196 108.652 204.982 107.524 202.719 106.402" stroke="#263238" stroke-width="1.78978" stroke-linecap="round" stroke-linejoin="round"/>
<path d="M205.683 105.784C206.334 103.73 207.193 101.748 208.245 99.868" stroke="#263238" stroke-width="1.78978" stroke-linecap="round" stroke-linejoin="round"/>
<path d="M208.503 122.032C207.027 120.168 205.289 118.527 203.343 117.16" stroke="#263238" stroke-width="1.78978" stroke-linecap="round" stroke-linejoin="round"/>
<path d="M209.26 124.144C209.61 122.645 210.086 121.178 210.682 119.758C211.515 117.868 211.66 117.622 211.66 117.622" stroke="#263238" stroke-width="1.78978" stroke-linecap="round" stroke-linejoin="round"/>
<path d="M212.835 137.02C213.694 135.954 214.646 134.966 215.679 134.068C216.338 133.58 216.956 133.041 217.527 132.454" stroke="#263238" stroke-width="1.78978" stroke-linecap="round" stroke-linejoin="round"/>
<path d="M212.949 134.344C212.232 133.199 211.43 132.11 210.549 131.086C209.688 130.145 208.751 129.276 207.747 128.488" stroke="#263238" stroke-width="1.78978" stroke-linecap="round" stroke-linejoin="round"/>
<path d="M212.199 142.744C212.104 141.543 211.69 140.389 210.999 139.402C209.907 137.962 208.599 136.054 208.107 135.304" stroke="#263238" stroke-width="1.78978" stroke-linecap="round" stroke-linejoin="round"/>
<path d="M223.707 164.584H207.952C207.638 164.584 207.338 164.462 207.113 164.243C206.889 164.025 206.759 163.727 206.752 163.414L204.49 145.978H227.121L224.859 163.414C224.852 163.719 224.729 164.01 224.515 164.227C224.301 164.444 224.012 164.572 223.707 164.584Z" fill="#263238"/>
<path d="M226.941 148.924H204.513C204.046 148.926 203.598 148.742 203.266 148.414C202.935 148.085 202.746 147.639 202.743 147.172C202.751 146.706 202.939 146.261 203.268 145.931C203.597 145.601 204.041 145.411 204.507 145.402H226.941C227.173 145.401 227.403 145.446 227.618 145.535C227.833 145.623 228.028 145.753 228.192 145.917C228.357 146.08 228.487 146.275 228.576 146.49C228.665 146.704 228.711 146.934 228.711 147.166C228.71 147.398 228.664 147.627 228.575 147.841C228.485 148.054 228.355 148.248 228.19 148.412C228.026 148.575 227.831 148.704 227.617 148.792C227.402 148.88 227.173 148.925 226.941 148.924Z" fill="#263238"/>
<path d="M176.38 79.1859C176.379 84.1101 174.71 88.8888 171.645 92.7427C168.58 96.5967 164.3 99.2986 159.502 100.408H159.436C158.866 100.534 158.296 100.648 157.708 100.732C156.676 100.879 155.636 100.953 154.594 100.954C148.899 100.934 143.439 98.6841 139.382 94.6872C135.325 90.6904 132.995 85.264 132.89 79.5701C132.785 73.8763 134.913 68.3675 138.82 64.2237C142.726 60.0799 148.1 57.6305 153.79 57.3999C153.988 57.3999 154.198 57.3999 154.39 57.3999C154.454 57.394 154.518 57.394 154.582 57.3999C154.656 57.394 154.73 57.394 154.804 57.3999C157.743 57.4189 160.647 58.0418 163.336 59.2299C167.214 60.9289 170.513 63.7212 172.83 67.2653C175.147 70.8095 176.38 74.9518 176.38 79.1859Z" fill="#92E3A9"/>
<path opacity="0.4" d="M163.348 59.2359C138.19 57.9279 138.07 85.8579 138.07 85.8579C138.07 85.8579 134.23 76.7439 140.5 66.6579C144.004 61.0119 150.1 58.5219 154.816 57.4179C157.754 57.4331 160.659 58.0519 163.348 59.2359Z" fill="white"/>
<path d="M176.38 79.1859C176.38 84.1222 174.703 88.9121 171.625 92.7709C168.546 96.6298 164.249 99.3288 159.436 100.426C157.848 100.791 156.224 100.975 154.594 100.972C148.816 101.079 143.232 98.8855 139.071 94.8752C134.91 90.8649 132.513 85.3659 132.406 79.5879C132.299 73.8099 134.493 68.2262 138.503 64.0651C142.513 59.9041 148.012 57.5065 153.79 57.3999C154.054 57.3999 154.324 57.3999 154.594 57.3999C160.372 57.4015 165.912 59.6973 169.997 63.7826C174.083 67.868 176.378 73.4084 176.38 79.1859V79.1859Z" stroke="#263238" stroke-width="1.52" stroke-linecap="round" stroke-linejoin="round"/>
<path d="M176.38 79.1859C176.38 84.1222 174.703 88.9121 171.625 92.7709C168.547 96.6298 164.249 99.3288 159.436 100.426C159.172 100.426 158.902 100.426 158.632 100.426C153.284 100.412 148.129 98.4318 144.146 94.8628C140.164 91.2939 137.632 86.3852 137.034 81.071C136.436 75.7568 137.813 70.4083 140.903 66.0435C143.993 61.6786 148.579 58.6022 153.79 57.3999C154.054 57.3999 154.324 57.3999 154.594 57.3999C160.372 57.4015 165.912 59.6973 169.997 63.7826C174.083 67.868 176.379 73.4084 176.38 79.1859V79.1859Z" stroke="#263238" stroke-width="1.52" stroke-linecap="round" stroke-linejoin="round"/>
<path d="M162.1 92.7999L162.664 95.1039L158.896 96.0219L158.332 93.7239C154.96 93.7239 152.254 91.5339 151.39 88.0179L151.132 86.9739L155.29 85.4679L155.554 86.5539C156.076 88.6899 157.486 89.7159 159.244 89.2839C159.63 89.2238 159.998 89.0808 160.323 88.8646C160.648 88.6484 160.923 88.3643 161.128 88.0317C161.332 87.6992 161.463 87.3262 161.509 86.9385C161.556 86.5508 161.518 86.1575 161.398 85.7859C160.894 83.7339 158.542 82.4499 155.818 81.1239C152.596 79.5639 149.272 77.5839 148.36 73.8579C147.472 70.2219 148.588 67.1919 151.462 65.6919L150.898 63.3879L154.66 62.4699L155.224 64.7679C158.494 64.7199 160.93 66.8739 161.824 70.5939L162.01 71.3499L157.858 72.8559L157.648 72.0219C157.096 69.7599 155.932 68.8059 154.384 69.1839C152.836 69.5619 152.194 70.7439 152.644 72.5799C153.148 74.6319 155.53 75.8679 158.224 77.2479C161.41 78.8619 164.77 80.7879 165.682 84.5079C166.6 88.0899 165.136 91.2819 162.1 92.7999Z" stroke="#263238" stroke-width="1.52" stroke-miterlimit="10"/>
<path opacity="0.3" d="M162.1 92.7999L162.664 95.1039L158.896 96.0219L158.332 93.7239C154.96 93.7239 152.254 91.5339 151.39 88.0179L151.132 86.9739L155.29 85.4679L155.554 86.5539C156.076 88.6899 157.486 89.7159 159.244 89.2839C159.63 89.2239 159.998 89.0808 160.323 88.8646C160.648 88.6484 160.923 88.3643 161.128 88.0317C161.332 87.6992 161.463 87.3262 161.509 86.9385C161.556 86.5508 161.518 86.1575 161.398 85.7859C160.894 83.7339 158.542 82.4499 155.818 81.1239C152.596 79.5639 149.272 77.5839 148.36 73.8579C147.472 70.2219 148.588 67.1919 151.462 65.6919L150.898 63.3879L154.66 62.4699L155.224 64.7679C158.494 64.7199 160.93 66.8739 161.824 70.5939L162.01 71.3499L157.858 72.8559L157.648 72.0219C157.096 69.7599 155.932 68.8059 154.384 69.1839C152.836 69.5619 152.194 70.7439 152.644 72.5799C153.148 74.6319 155.53 75.8679 158.224 77.2479C161.41 78.8619 164.77 80.7879 165.682 84.5079C166.6 88.0899 165.136 91.2819 162.1 92.7999Z" fill="black"/>
<path d="M143.458 97.9179L148.06 97.7079" stroke="#263238" stroke-width="1.52" stroke-linecap="round" stroke-linejoin="round"/>
<path d="M141.244 96.3879L145.258 96.0459" stroke="#263238" stroke-width="1.52" stroke-linecap="round" stroke-linejoin="round"/>
<path d="M139.444 94.7739L143.458 94.4319" stroke="#263238" stroke-width="1.52" stroke-linecap="round" stroke-linejoin="round"/>
<path d="M138.892 64.0779H142.33" stroke="#263238" stroke-width="1.52" stroke-linecap="round" stroke-linejoin="round"/>
<path d="M140.59 62.4939L144.016 62.3379" stroke="#263238" stroke-width="1.52" stroke-linecap="round" stroke-linejoin="round"/>
<path d="M142.738 60.9039L146.35 60.5619" stroke="#263238" stroke-width="1.52" stroke-linecap="round" stroke-linejoin="round"/>
<path opacity="0.3" d="M159.502 100.408H159.436C157.848 100.773 156.224 100.957 154.594 100.954C148.899 100.934 143.439 98.6841 139.382 94.6872C135.325 90.6904 132.995 85.264 132.89 79.5701C132.785 73.8762 134.913 68.3675 138.82 64.2237C142.726 60.0799 148.1 57.6305 153.79 57.3999C153.988 57.3999 154.198 57.3999 154.39 57.3999C149.08 59.0739 140.17 63.3519 137.788 72.2739C134.422 84.9519 142 99.3459 159.502 100.408Z" fill="black"/>
<path opacity="0.1" d="M176.38 79.1859C176.379 84.1101 174.71 88.8887 171.645 92.7427C168.58 96.5966 164.3 99.2985 159.502 100.408H159.436C158.866 100.534 158.296 100.648 157.708 100.732L163.348 59.2179C167.226 60.9195 170.524 63.7144 172.838 67.2608C175.153 70.8071 176.384 74.9511 176.38 79.1859Z" fill="black"/>
<path d="M188.74 44.8899C187.015 47.3266 184.515 49.1065 181.648 49.939C178.781 50.7716 175.716 50.6076 172.954 49.4739L172.876 49.4379C172.466 49.2578 172.066 49.0575 171.676 48.8379C171.236 48.6012 170.811 48.3366 170.404 48.0459C167.746 46.0161 165.958 43.0531 165.4 39.7556C164.843 36.4581 165.558 33.0719 167.401 30.2812C169.244 27.4905 172.077 25.5033 175.329 24.7213C178.58 23.9392 182.008 24.4205 184.918 26.0679L185.212 26.2539C185.35 26.3319 185.482 26.4279 185.62 26.5239C185.758 26.6199 186.022 26.8179 186.22 26.9739C188.843 29.0776 190.564 32.1028 191.032 35.4323C191.5 38.7617 190.681 42.1443 188.74 44.8899Z" fill="#92E3A9"/>
<path opacity="0.4" d="M168.856 45.0699C168.856 45.0699 166.702 38.7279 169.564 34.0599C173.164 28.2099 178.678 25.5399 186.184 26.9799C186.184 26.9799 182.116 24.2319 175.306 26.1819C168.496 28.1319 164.842 37.5039 168.856 45.0699Z" fill="white"/>
<path d="M188.74 44.8959C187.013 47.3305 184.512 49.108 181.645 49.9383C178.778 50.7687 175.715 50.6029 172.954 49.4679C172.043 49.0956 171.177 48.6206 170.374 48.0519C167.7 46.0003 165.911 43.0032 165.376 39.6752C164.84 36.3472 165.599 32.9405 167.495 30.1535C169.391 27.3666 172.281 25.4106 175.573 24.6866C178.865 23.9627 182.31 24.5256 185.2 26.2599C185.332 26.3379 185.47 26.4279 185.602 26.5239C188.45 28.5476 190.379 31.6177 190.968 35.0615C191.556 38.5052 190.755 42.0417 188.74 44.8959Z" stroke="#263238" stroke-width="1.52" stroke-linecap="round" stroke-linejoin="round"/>
<path d="M188.74 44.8959C187.013 47.3305 184.512 49.108 181.645 49.9384C178.778 50.7687 175.714 50.6029 172.954 49.4679L172.552 49.2039C169.945 47.3144 168.119 44.5375 167.417 41.3955C166.714 38.2536 167.185 34.9633 168.739 32.1439C170.293 29.3244 172.824 27.1702 175.856 26.0866C178.887 25.0029 182.21 25.0646 185.2 26.2599C185.332 26.3379 185.47 26.4279 185.602 26.5239C188.45 28.5476 190.379 31.6177 190.967 35.0615C191.555 38.5052 190.754 42.0417 188.74 44.8959Z" stroke="#263238" stroke-width="1.52" stroke-linecap="round" stroke-linejoin="round"/>
<path d="M176.926 46.6479L176.404 47.9799L174.22 47.1219L174.742 45.7839C173.932 45.2133 173.345 44.3788 173.082 43.4232C172.82 42.4677 172.897 41.4505 173.302 40.5459L173.542 39.9459L176.122 40.6479L175.876 41.2839C175.39 42.5199 175.72 43.5159 176.74 43.9179C176.952 44.0232 177.184 44.0813 177.42 44.0881C177.657 44.0949 177.892 44.0503 178.109 43.9573C178.327 43.8643 178.521 43.7251 178.68 43.5494C178.838 43.3738 178.956 43.1658 179.026 42.9399C179.494 41.7399 178.78 40.2939 177.898 38.6919C176.854 36.7959 175.906 34.6599 176.752 32.4999C177.598 30.3399 179.194 29.2839 181.132 29.5479L181.66 28.2159L183.838 29.0739L183.316 30.3999C184.948 31.5159 185.398 33.3999 184.552 35.5899L184.378 36.0219L181.798 35.3199L181.99 34.8339C182.506 33.5259 182.266 32.6439 181.39 32.2899C180.514 31.9359 179.764 32.2899 179.344 33.3639C178.876 34.5639 179.626 35.9919 180.472 37.6119C181.486 39.5259 182.47 41.6499 181.624 43.8039C181.303 44.7566 180.656 45.5649 179.796 46.0855C178.936 46.6061 177.919 46.8054 176.926 46.6479V46.6479Z" stroke="#263238" stroke-width="1.52" stroke-miterlimit="10"/>
<path opacity="0.3" d="M176.926 46.6479L176.404 47.9799L174.22 47.1219L174.742 45.7839C173.932 45.2133 173.345 44.3788 173.082 43.4232C172.82 42.4677 172.897 41.4505 173.302 40.5459L173.542 39.9459L176.122 40.6479L175.876 41.2839C175.39 42.5199 175.72 43.5159 176.74 43.9179C176.952 44.0232 177.184 44.0813 177.42 44.0881C177.657 44.0949 177.892 44.0503 178.109 43.9573C178.327 43.8643 178.521 43.7251 178.68 43.5494C178.838 43.3738 178.956 43.1658 179.026 42.9399C179.494 41.7399 178.78 40.2939 177.898 38.6919C176.854 36.7959 175.906 34.6599 176.752 32.4999C177.598 30.3399 179.194 29.2839 181.132 29.5479L181.66 28.2159L183.838 29.0739L183.316 30.3999C184.948 31.5159 185.398 33.3999 184.552 35.5899L184.378 36.0219L181.798 35.3199L181.99 34.8339C182.506 33.5259 182.266 32.6439 181.39 32.2899C180.514 31.9359 179.764 32.2899 179.344 33.3639C178.876 34.5639 179.626 35.9919 180.472 37.6119C181.486 39.5259 182.47 41.6499 181.624 43.8039C181.303 44.7566 180.656 45.5649 179.796 46.0855C178.936 46.6061 177.919 46.8054 176.926 46.6479Z" fill="black"/>
<path opacity="0.3" d="M184.888 26.0739C181.288 25.4319 176.728 25.0779 174.268 26.6739C169.75 29.5719 166.936 33.2259 166.978 39.1479C167.02 45.0699 172.552 49.2219 172.552 49.2219L172.876 49.4559C171.993 49.0873 171.154 48.6225 170.374 48.0699C167.716 46.0401 165.928 43.0771 165.37 39.7796C164.813 36.482 165.528 33.0958 167.371 30.3051C169.214 27.5145 172.047 25.5273 175.299 24.7452C178.55 23.9632 181.978 24.4445 184.888 26.0919V26.0739Z" fill="black"/>
<path opacity="0.1" d="M188.74 44.8899C187.015 47.3266 184.515 49.1065 181.648 49.9391C178.78 50.7716 175.716 50.6077 172.954 49.4739L172.876 49.4379C172.466 49.2578 172.066 49.0576 171.676 48.8379L186.184 26.9799C188.811 29.0783 190.538 32.0999 191.013 35.4282C191.488 38.7564 190.675 42.1405 188.74 44.8899Z" fill="black"/>
<path d="M181.948 213.856C176.363 220.574 169.705 226.322 162.244 230.866C159.919 232.257 157.515 233.511 155.044 234.622C137.998 242.284 118.57 242.782 100.402 238.378C62.2002 229.12 41.9322 195.4 39.3582 157.966C38.6682 147.85 37.1202 136.924 41.2182 127.3C45.3162 117.676 53.6022 111.7 62.9741 107.548C69.7781 104.518 77.1281 102.484 83.8061 100.822C95.8914 97.8365 108.639 99.1518 119.86 104.542C127.714 108.268 133.306 114.742 139.912 120.196C140.612 120.772 141.316 121.346 142.024 121.918C148.697 127.289 155.712 132.222 163.024 136.684C174.13 143.458 185.5 149.848 192.598 161.224C203.92 179.356 194.368 199.096 181.948 213.856Z" fill="#92E3A9"/>
<path opacity="0.4" d="M181.948 213.856C176.363 220.574 169.705 226.322 162.244 230.866C159.919 232.257 157.515 233.511 155.044 234.622C137.998 242.284 118.57 242.782 100.402 238.378C62.2002 229.12 41.9322 195.4 39.3582 157.966C38.6682 147.85 37.1202 136.924 41.2182 127.3C45.3162 117.676 53.6022 111.7 62.9741 107.548C69.7781 104.518 77.1281 102.484 83.8061 100.822C95.8914 97.8365 108.639 99.1518 119.86 104.542C127.714 108.268 133.306 114.742 139.912 120.196C140.612 120.772 141.316 121.346 142.024 121.918C148.697 127.289 155.712 132.222 163.024 136.684C174.13 143.458 185.5 149.848 192.598 161.224C203.92 179.356 194.368 199.096 181.948 213.856Z" fill="white"/>
<path d="M142 121.918C141.292 121.35 140.588 120.774 139.888 120.19C133.288 114.724 127.684 108.268 119.836 104.542C108.614 99.1548 95.8678 97.8396 83.7823 100.822C67.9003 104.764 48.2023 110.836 41.1823 127.306C37.0843 136.906 38.6323 147.85 39.3283 157.966C41.9323 195.4 62.2003 229.12 100.402 238.378C121.186 243.418 143.602 242.038 162.244 230.866C169.705 226.322 176.363 220.574 181.948 213.856C194.368 199.096 203.92 179.356 192.61 161.224C185.518 149.824 174.148 143.458 163.036 136.684C155.712 132.223 148.685 127.291 142 121.918V121.918Z" stroke="#263238" stroke-width="1.52" stroke-miterlimit="10"/>
<path d="M84.1303 188.668C80.9498 189.631 77.8631 190.88 74.9083 192.4" stroke="#263238" stroke-width="1.52" stroke-linecap="round" stroke-linejoin="round"/>
<path d="M103.6 184.96C98.9541 185.362 94.3425 186.094 89.8002 187.15" stroke="#263238" stroke-width="1.52" stroke-linecap="round" stroke-linejoin="round"/>
<path d="M99.5502 184C99.5502 184 81.6222 173.572 59.9862 181.93" stroke="#263238" stroke-width="1.52" stroke-linecap="round" stroke-linejoin="round"/>
<path opacity="0.1" d="M181.948 213.856C176.363 220.574 169.706 226.322 162.244 230.866C159.919 232.257 157.515 233.511 155.044 234.622C153.094 234.025 151.177 233.322 149.302 232.516C138.106 227.716 128.71 219.598 119.53 211.594C113.992 206.794 108.364 201.874 101.734 198.712C92.7687 194.473 82.5688 193.633 73.0304 196.348C77.9636 190.78 84.6707 187.089 92.0144 185.902C87.2744 181.588 80.6804 179.776 74.2724 179.662C67.8644 179.548 64.3364 180.334 58.0724 181.738C60.1664 177.886 65.7224 174.4 70.1084 174.502C65.9389 174.447 61.7761 174.152 57.6404 173.62C51.9824 172.708 49.4504 166.048 48.6044 160.384C46.2644 144.784 48.6344 128.17 57.1484 114.91C58.834 112.265 60.784 109.799 62.9684 107.548C69.7724 104.518 77.1224 102.484 83.8004 100.822C95.8857 97.8365 108.633 99.1518 119.854 104.542C127.708 108.268 133.3 114.742 139.906 120.196C140.606 120.772 141.31 121.346 142.018 121.918C148.692 127.289 155.706 132.222 163.018 136.684C174.124 143.458 185.494 149.848 192.592 161.224C203.92 179.356 194.368 199.096 181.948 213.856Z" fill="black"/>
<path d="M188.2 213.4C191.564 216.197 195.084 218.801 198.742 221.2C205.876 221.68 202.678 230.302 202.678 230.302L196.57 234.232C196.57 234.232 186.112 225.922 180.4 223.228C174.688 220.534 188.2 213.4 188.2 213.4Z" fill="white"/>
<path opacity="0.3" d="M137.506 122.62C137.506 122.62 136.528 112.942 134.968 110.224L111.28 105.4V103.564C111.28 103.564 111.826 100.372 106.546 98.374C101.266 96.376 90.2622 98.974 87.4242 101.122C84.5862 103.27 85.6242 106.966 85.6242 106.966C85.6242 106.966 76.0842 111.784 71.8002 113.62C68.2934 115.238 64.8746 117.041 61.5582 119.02C61.5582 119.02 59.6142 141.268 59.9982 146.434C60.3822 151.6 59.6862 156.46 60.1302 159.322C60.5742 162.184 60.9222 163.81 63.9222 166.246C66.9222 168.682 69.6522 172.246 77.5182 168.712L76.4202 167.842L128.2 150.4L137.506 122.62Z" fill="black"/>
<path d="M137.506 122.62C137.506 122.62 136.528 112.942 134.968 110.224L111.28 105.4V103.564C111.28 103.564 111.826 100.372 106.546 98.374C101.266 96.376 90.2622 98.974 87.4242 101.122C84.5862 103.27 85.6242 106.966 85.6242 106.966C85.6242 106.966 76.0842 111.784 71.8002 113.62C68.2934 115.238 64.8746 117.041 61.5582 119.02C61.5582 119.02 59.6142 141.268 59.9982 146.434C60.3822 151.6 59.6862 156.46 60.1302 159.322C60.5742 162.184 60.9222 163.81 63.9222 166.246C66.9222 168.682 69.6522 172.246 77.5182 168.712L76.4202 167.842L128.2 150.4L137.506 122.62Z" fill="#92E3A9"/>
<path opacity="0.05" d="M137.506 122.62C137.506 122.62 136.528 112.942 134.968 110.224L111.28 105.4V103.564C111.28 103.564 111.826 100.372 106.546 98.374C101.266 96.376 90.2622 98.974 87.4242 101.122C84.5862 103.27 85.6242 106.966 85.6242 106.966C85.6242 106.966 76.0842 111.784 71.8002 113.62C68.2934 115.238 64.8746 117.041 61.5582 119.02C61.5582 119.02 59.6142 141.268 59.9982 146.434C60.3822 151.6 59.6862 156.46 60.1302 159.322C60.5742 162.184 60.9222 163.81 63.9222 166.246C66.9222 168.682 69.6522 172.246 77.5182 168.712L76.4202 167.842L128.2 150.4L137.506 122.62Z" fill="black"/>
<path opacity="0.1" d="M135.28 111.4H125.368C124.436 111.402 123.535 111.733 122.824 112.336C122.114 112.939 121.64 113.775 121.486 114.694L116.602 144.094C116.602 144.094 109.876 144.652 105.112 148.126C100.348 151.6 88.6303 126.814 70.1143 126.802C70.1143 126.802 75.4423 138.982 76.6243 148.702C76.6243 148.702 65.0503 147.442 63.1303 151.972C61.2103 156.502 64.0003 164.992 68.8963 161.704C73.7923 158.416 78.4003 152.932 81.6703 156.4C84.9403 159.868 99.5503 161.734 99.5503 161.734L122.032 150.4L130.75 146.302L135.28 111.4Z" fill="black"/>
<path opacity="0.4" d="M103.81 96.826C103.81 96.826 109.438 98.386 110.35 100.276C111.262 102.166 111.166 106.948 111.166 106.948C109.801 110.144 107.731 112.991 105.112 115.276L100.912 106.948L101.29 116.392C101.29 116.392 93.3223 115.066 89.9383 112.522L86.5603 109.972C86.5603 109.972 85.1023 105.172 85.3123 103.546C85.5223 101.92 91.6003 98.62 91.6003 98.62L103.81 96.826Z" fill="white"/>
<path d="M197.554 242.452C197.398 242.11 199.864 237.754 197.932 233.32C196 228.886 192.922 230.596 192.922 230.596C192.922 230.596 184.156 225.016 180.472 223.252C177.818 221.919 175.261 220.399 172.822 218.704L168.928 223.948L172.528 235.084L197.554 242.452Z" fill="#92E3A9"/>
<path d="M192.604 230.326L203.86 237.202C203.86 237.202 211.774 232.126 215.548 228.622C219.322 225.118 227.8 217.654 227.8 217.654L233.2 210.388C233.2 210.388 229.456 205.756 223.216 209.476C215.152 214.276 205.318 221.248 198.76 221.182C198.76 221.182 200.05 229.24 192.646 230.326" fill="#92E3A9"/>
<path d="M101.902 67.738C101.902 67.738 107.008 75.466 107.938 77.968C108.868 80.47 109.618 84.172 109.432 85.954C109.246 87.736 107.374 97.282 106.432 97.558L105.526 98.584L106.126 102.628C106.126 102.628 102.13 109.534 90.3825 104.47C90.3825 104.47 89.9265 96.406 88.4985 93.874C87.0705 91.342 84.9345 94.354 82.7925 87.04C80.6505 79.726 87.4725 72.04 87.4725 72.04L101.902 67.738Z" fill="white"/>
<path opacity="0.5" d="M228.298 208.132C228.298 208.132 222.508 209.14 220.63 212.566C218.752 215.992 215.146 222.358 213.916 225.436C212.686 228.514 202.516 235.948 202.516 235.948L203.866 237.202C203.866 237.202 212.146 232.084 217.144 227.218C222.142 222.352 233.164 210.112 233.164 210.112C233.164 210.112 232.372 209.326 228.298 208.132Z" fill="white"/>
<path opacity="0.5" d="M170.362 222.022L168.928 223.948L173.332 233.08L197.554 241.786L198.676 238.24C198.676 238.24 199.048 234.64 190.546 231.904C182.044 229.168 176.86 227.362 174.442 225.484C172.024 223.606 170.362 222.022 170.362 222.022Z" fill="white"/>
<path d="M90.4004 154.198C90.4004 154.198 82.9844 153.082 79.5224 159.148C76.0604 165.214 76.4144 167.842 76.4144 167.842C76.4144 167.842 81.3164 172.294 88.0544 172.042C94.7924 171.79 104.602 164.074 107.8 161.56C110.998 159.046 119.062 151.852 124.564 153.34L125.164 148.138C125.164 148.138 124.624 145.804 119.92 146.434C115.216 147.064 113.368 149.746 111.85 149.746C110.332 149.746 108.898 148.288 105.85 153.496C105.844 153.496 95.1464 155.392 90.4004 154.198Z" fill="white"/>
<path d="M100.036 78.85C100.194 79.8223 100.419 80.7826 100.708 81.724C100.817 82.1836 101.021 82.6151 101.308 82.99C101.872 83.59 102.784 83.746 103.618 83.872C103.756 83.8819 103.887 83.9367 103.99 84.028C104.058 84.1355 104.089 84.2615 104.08 84.388C104.075 85.3331 103.791 86.2556 103.264 87.04" stroke="#263238" stroke-width="1.52" stroke-linecap="round" stroke-linejoin="round"/>
<path opacity="0.1" d="M175.336 215.8L170.362 221.998C170.362 221.998 175.822 227.044 181.474 228.916C187.126 230.788 197.02 234.316 198.676 237.034L198.04 233.8C198.04 233.8 182.566 224.308 179.014 222.04C177.964 221.351 177.086 220.43 176.448 219.348C175.811 218.266 175.43 217.052 175.336 215.8Z" fill="black"/>
<path opacity="0.1" d="M192.604 230.326L202.51 235.948C202.51 235.948 207.4 232.6 209.8 230.134C212.2 227.668 215.158 224.932 217 219.406C219.514 211.768 226.714 208.132 226.714 208.132C226.714 208.132 216.7 212.848 211.486 216.532C206.272 220.216 201.191 221.776 198.239 221.524C198.209 221.542 200.578 229.042 192.604 230.326Z" fill="black"/>
<path d="M96.5443 88.402C96.5443 88.402 100.438 91.456 104.482 90.31C104.482 90.31 100.666 97.87 96.5443 88.402Z" fill="white" stroke="#263238" stroke-width="1.52" stroke-linecap="round" stroke-linejoin="round"/>
<path d="M96.4003 81.802C96.5143 82.642 96.2563 83.3681 95.8363 83.4281C95.4163 83.4881 94.9783 82.828 94.8643 82.006C94.7503 81.184 95.0023 80.44 95.4283 80.38C95.8543 80.32 96.3103 80.962 96.4003 81.802Z" fill="#263238"/>
<path d="M104.878 80.272C104.986 81.118 104.734 81.844 104.314 81.898C103.894 81.952 103.45 81.298 103.342 80.482C103.234 79.666 103.48 78.91 103.906 78.856C104.332 78.802 104.764 79.432 104.878 80.272Z" fill="#263238"/>
<path d="M95.8003 78.238C95.8003 78.238 93.5323 77.068 91.9183 79.576" stroke="#263238" stroke-width="1.52" stroke-linecap="round" stroke-linejoin="round"/>
<path d="M101.614 76.678C101.614 76.678 104.014 74.62 105.4 76.678" stroke="#263238" stroke-width="1.52" stroke-linecap="round" stroke-linejoin="round"/>
<path d="M88.0962 85.96C88.0962 85.96 86.6382 83.806 85.0962 83.872C83.5542 83.938 82.9422 86.098 83.4942 88.186C84.0462 90.274 86.3442 93.19 88.0842 92.914C89.0657 92.7876 89.9612 92.2893 90.5862 91.522" stroke="#263238" stroke-width="1.52" stroke-linecap="round" stroke-linejoin="round"/>
<path d="M102.076 69.478C103.714 70.84 105.448 72.322 106.276 74.326C107.008 76.03 107.17 77.926 107.842 79.648C108.556 81.49 109.336 83.416 109.396 85.426C109.365 87.2857 109.121 89.1356 108.67 90.94C108.421 92.5046 108.05 94.0473 107.56 95.554C106.75 97.708 105.256 99.034 103.252 100.054C101.794 100.798 99.3643 101.854 97.7863 100.858C96.8683 100.258 95.4883 98.542 94.3423 96.964" stroke="#263238" stroke-width="1.52" stroke-linecap="round" stroke-linejoin="round"/>
<path d="M88.0963 92.9141C88.0963 92.9141 90.6763 99.2381 90.0523 103.684" stroke="#263238" stroke-width="1.52" stroke-linecap="round" stroke-linejoin="round"/>
<path d="M87.4364 84.898C87.7798 84.644 88.0519 84.3056 88.2264 83.9157C88.4008 83.5257 88.4718 83.0974 88.4324 82.672C88.3364 81.7 87.6644 80.8 87.7964 79.828C87.9068 79.3626 88.0804 78.9144 88.3124 78.496C88.6618 77.6889 88.8157 76.8106 88.7614 75.9327C88.7072 75.0548 88.4465 74.2021 88.0004 73.444C88.0004 73.444 96.1964 73.828 100.036 71.386C103.876 68.944 106.804 62.698 104.482 59.716C102.16 56.734 97.6364 60.802 94.2824 61.252C90.9284 61.702 79.0004 63.604 77.0984 68.2C75.1964 72.796 78.0944 74.446 78.1844 78.832C78.2744 83.218 78.2744 91.528 84.8324 90.766C84.8324 90.766 82.3784 87.592 84.0824 84.322C85.2404 82.948 87.4364 84.898 87.4364 84.898Z" fill="#263238"/>
<path d="M103.51 64.9C104.623 65.7669 105.546 66.8534 106.221 68.092C106.896 69.3307 107.309 70.6949 107.434 72.1C107.8 75.388 113.632 81.778 109.426 85.42C109.426 85.42 108.448 81.55 107.872 79.642C107.296 77.734 106.558 74.242 105.592 73.042C104.626 71.842 99.5021 67.642 99.5021 67.642L103.51 64.9Z" fill="#263238"/>
<path d="M88.8521 103.546C88.8521 103.546 92.8961 106.21 100.408 106.318L101.29 116.392C101.29 116.392 92.8421 115.75 86.5601 109.972C86.5601 109.972 84.8621 105.478 85.3121 103.546C85.7621 101.614 89.8001 99.7001 89.8001 99.7001" stroke="#263238" stroke-width="1.52" stroke-linecap="round" stroke-linejoin="round"/>
<path d="M105.844 99.04L106.084 102.64C104.5 104.289 102.558 105.552 100.408 106.33L105.112 115.288C105.112 115.288 110.722 110.92 111.28 106.33C111.28 106.33 111.328 101.632 110.35 100.288C109.372 98.944 105.808 98.314 105.808 98.314" stroke="#263238" stroke-width="1.52" stroke-linecap="round" stroke-linejoin="round"/>
<path opacity="0.8" d="M83.0802 71.2001C83.6802 69.6941 85.3242 68.8001 86.9262 68.5601C88.5282 68.3201 90.1722 68.4881 91.7922 68.4461C94.0354 68.428 96.2323 67.8062 98.1522 66.6461C99.1061 66.0652 99.9362 65.302 100.595 64.4001C101.254 63.4983 101.729 62.4754 101.992 61.3901" stroke="white" stroke-width="1.52" stroke-linecap="round" stroke-linejoin="round"/>
<path opacity="0.8" d="M79.2101 70.906C80.2241 67.828 83.5121 65.926 86.7461 65.656C88.3481 65.518 89.9681 65.704 91.5461 65.518C93.1241 65.332 94.8041 64.672 95.6381 63.298" stroke="white" stroke-width="1.52" stroke-linecap="round" stroke-linejoin="round"/>
<path d="M77.5062 168.712C69.7062 172.756 66.9342 168.592 62.5902 165.148C58.2462 161.704 61.0962 155.548 60.1902 145.678C59.2842 135.808 61.5402 119.02 61.5402 119.02C61.5402 119.02 63.4842 118.576 68.8782 115.276C74.2722 111.976 85.6242 106.948 85.6242 106.948" stroke="#263238" stroke-width="1.52" stroke-linecap="round" stroke-linejoin="round"/>
<path d="M85.2343 153.772C85.2343 153.772 83.9983 149.854 80.5063 149.752C77.0143 149.65 71.5063 151.222 67.5823 158.644" stroke="#263238" stroke-width="1.52" stroke-linecap="round" stroke-linejoin="round"/>
<path d="M79.708 149.518C79.4911 149.504 79.2781 149.453 79.078 149.368C76.1993 148.332 73.0749 148.19 70.114 148.96" stroke="#263238" stroke-width="1.52" stroke-linecap="round" stroke-linejoin="round"/>
<path d="M68.1042 124.378C74.4582 131.398 77.5542 140.686 80.4882 149.686" stroke="#263238" stroke-width="1.52" stroke-linecap="round" stroke-linejoin="round"/>
<path d="M111.28 105.4C111.28 105.4 122.8 108.148 128.428 108.802C134.056 109.456 134.968 110.242 134.968 110.242L136.018 114.166" stroke="#263238" stroke-width="1.52" stroke-linecap="round" stroke-linejoin="round"/>
<path d="M164.962 112.228L125.728 113.734L122.524 154.084H129.244L163.312 146.458L167.596 113.194L164.962 112.228Z" fill="white"/>
<path d="M124.564 155.278L167.476 114.148L163.312 146.458L124.564 155.278Z" fill="#92E3A9"/>
<path opacity="0.7" d="M124.564 155.278L167.476 114.148L163.312 146.458L124.564 155.278Z" fill="white"/>
<path d="M124.564 154.198L127.996 115.276L167.596 113.194L163.312 146.458L124.564 154.198Z" stroke="#263238" stroke-width="1.52" stroke-linecap="round" stroke-linejoin="round"/>
<path d="M150.904 132.052C150.64 134.422 149.374 136.222 148.078 136.078C146.782 135.934 145.954 133.888 146.218 131.518C146.482 129.148 147.754 127.348 149.05 127.492C150.346 127.636 151.174 129.682 150.904 132.052Z" fill="#263238"/>
<path d="M163.312 146.458C163.312 146.458 181.444 145.942 187.114 149.686C192.784 153.43 196.114 172.204 195.328 182.176C194.542 192.148 187.702 215.032 187.702 215.032L174.598 200.2C174.598 200.2 168.142 176.728 171.664 167.536C171.664 167.536 154.264 168.514 147.412 166.366C147.412 166.366 141.274 156.316 130.75 152.992L163.312 146.458Z" fill="#263238"/>
<path d="M190.468 215.422C185.814 211.077 181.634 206.25 178 201.022C171.658 191.224 162.892 181.822 153.874 174.484C146.608 168.592 144.964 158.992 136 154.174C121.15 146.212 108.31 162.034 103.51 165.238C98.7101 168.442 90.4001 172.072 90.4001 172.072C90.4001 172.072 93.4361 183.472 102.352 184.822C111.268 186.172 120.286 180.022 124.552 182.992C128.818 185.962 131.974 199.222 146.062 206.992C157.576 213.34 173.266 219.532 181.36 223.708C183.16 224.644 184.504 225.628 185.524 226.186C188.32 227.71 191.308 229.504 194.128 231.28L203.842 237.196C203.842 237.196 213.592 231.43 217.336 226.114C217.834 225.4 218.872 223.498 219.844 221.662C221.962 217.648 224.644 214.048 228.358 212.062C230.926 210.676 233.212 210.262 233.158 210.118C232.912 209.662 228.256 207.28 225.094 208.582C218.398 211.348 205.012 221.974 198.694 221.182C195.755 219.559 192.998 217.629 190.468 215.422V215.422Z" stroke="#263238" stroke-width="1.52" stroke-miterlimit="10"/>
<path d="M190.468 215.422C184.63 217.78 182.278 221.422 181.378 223.714C173.284 219.514 157.594 213.346 146.08 206.998C131.992 199.198 128.86 185.962 124.57 182.998C120.28 180.034 111.256 186.202 102.37 184.828C93.4841 183.454 90.4001 172.066 90.4001 172.066C90.4001 172.066 98.7161 168.466 103.516 165.262C108.316 162.058 119.386 146.23 136 154.198C145.174 158.596 146.608 168.598 153.874 174.508C162.874 181.822 171.658 191.248 178 201.046C181.626 206.274 185.806 211.094 190.468 215.422Z" fill="#263238"/>
<path d="M146.596 164.554C146.596 164.554 142.102 155.422 134.896 153.652" stroke="white" stroke-width="1.52" stroke-linecap="round" stroke-linejoin="round"/>
<path d="M123.04 146.374C118.084 145.294 112.642 150.772 110.35 149.746C108.646 148.984 105.844 153.496 105.844 153.496C101.232 154.162 96.5679 154.397 91.9122 154.198C85.2342 153.772 82.0722 155.074 79.7082 158.644L76.4082 167.386C76.4082 167.386 85.1142 175.186 94.4082 170.644C103.702 166.102 116.05 152.398 124.558 152.446" stroke="#263238" stroke-width="1.52" stroke-linecap="round" stroke-linejoin="round"/>
<path d="M192.226 230.092C192.226 230.092 200.362 230.758 198.454 221.038" stroke="#263238" stroke-width="1.52" stroke-miterlimit="10"/>
<path d="M230.566 215.032C229.966 216.232 222.508 222.58 216.082 228.13C216.082 228.046 217.882 224.656 218.626 223.21C220.336 220.018 224.752 211.264 233.158 210.112C234.352 210.832 230.566 215.032 230.566 215.032Z" fill="#263238"/>
<path d="M227.368 208.198C218.866 209.89 216.934 220.798 213.916 225.436C210.898 230.074 202.516 236.38 202.516 236.38" stroke="#263238" stroke-width="1.52" stroke-miterlimit="10"/>
<path d="M197.932 233.596C199.318 236.128 198.664 239.068 197.932 240.91C197.574 241.825 197.127 242.703 196.6 243.532C184.564 241.552 172.528 235.084 172.528 235.084L169.426 225.484L168.928 223.948L173.602 217.654" stroke="#263238" stroke-width="1.52" stroke-miterlimit="10"/>
<path d="M197.932 240.91C197.574 241.825 197.128 242.703 196.6 243.532C184.564 241.552 172.528 235.084 172.528 235.084L169.426 225.484C170.98 227.512 173.86 230.482 178.18 231.7C184.042 233.362 194.86 235.306 197.932 240.91Z" fill="#263238"/>
<path d="M122.524 152.68L125.728 113.734L164.962 112.228L167.596 113.194" stroke="#263238" stroke-width="1.52" stroke-linecap="round" stroke-linejoin="round"/>
<path d="M198.4 225.436C198.4 225.436 203.764 226.396 207.886 223.036C212.008 219.676 218.65 212.074 218.65 212.074" stroke="#263238" stroke-width="1.52" stroke-miterlimit="10"/>
<path d="M203.86 220.6C203.86 220.6 202.564 222.55 203.86 226.462" stroke="#263238" stroke-width="1.52" stroke-linecap="round" stroke-linejoin="round"/>
<path d="M207.664 218.734C207.074 220.679 207.248 222.775 208.15 224.596" stroke="#263238" stroke-width="1.52" stroke-linecap="round" stroke-linejoin="round"/>
<path d="M212.2 216.106C212.2 216.106 211.114 219.364 212.2 222.238" stroke="#263238" stroke-width="1.52" stroke-linecap="round" stroke-linejoin="round"/>
<path d="M174.664 216.844L170.362 222.022C170.362 222.022 174.694 226.756 180.808 228.724C186.922 230.692 197.842 234.034 198.748 237.592" stroke="#263238" stroke-width="1.52" stroke-miterlimit="10"/>
<path d="M147.803 130.316C147.563 130.316 147.368 130.507 147.368 130.743V133.441C147.368 133.677 147.563 133.868 147.803 133.868C148.042 133.868 148.237 133.677 148.237 133.441V130.743C148.237 130.507 148.042 130.316 147.803 130.316Z" fill="#6FCF97"/>
<path d="M148.979 131.446C148.761 131.446 148.584 131.62 148.584 131.835V132.771C148.584 132.986 148.761 133.16 148.979 133.16C149.197 133.16 149.374 132.986 149.374 132.771V131.835C149.374 131.62 149.197 131.446 148.979 131.446Z" fill="#6FCF97"/>
<path d="M148.584 130.866C148.584 130.651 148.761 130.477 148.979 130.477C149.197 130.477 149.374 130.651 149.374 130.866V130.945C149.374 131.16 149.197 131.334 148.979 131.334C148.761 131.334 148.584 131.16 148.584 130.945V130.866Z" fill="#6FCF97"/>
<path d="M150.131 131.644C149.913 131.644 149.736 131.818 149.736 132.033V132.113C149.736 132.327 149.913 132.501 150.131 132.501C150.349 132.501 150.526 132.327 150.526 132.113V132.033C150.526 131.818 150.349 131.644 150.131 131.644Z" fill="#6FCF97"/>
</svg>
